# xmcd CD database file
# Copyright (C) 1997 Ti Kan
#
# Track frame offsets:
#  182
#  12152
#  26725
#  37545
#  50340
#  62437
#  75590
#  88707
#  100372
#  113247
#  134960
#  148752
#  159100
#  172465
#  183380
#  196140
#  208515
#  222885
#  236357
#  246812
#
# Disc length: 3473 seconds
#
# Revision: 1
# Processed by: cddbd v1.4b41PL1 Copyright (c) Steve Scherf et al.
# Submitted via: CDWizzard Release:4.35
#
DISCID=100d8f14
DTITLE=Coctail - The Blues Box Vol. 2
DYEAR=1900
DGENRE=
TTITLE0=I'm In The Mood
TTITLE1=Why Worry
TTITLE2=Little Red Rooster
TTITLE3=Hoochie Coochie Man
TTITLE4=Spoonful
TTITLE5=When My Heart Beats Like A Hammer
TTITLE6=She Moves Me
TTITLE7=My First Wife Left Me
TTITLE8=Everybody Needs Somebody
TTITLE9=Something Inside Me
TTITLE10=Jeff's Blues
TTITLE11=West Coast Idea
TTITLE12=Mojo Hand
TTITLE13=You'll Be Mine
TTITLE14=I Just Wan To Make Love To You
TTITLE15=Hobo Blues
TTITLE16=John Lee Boogie
TTITLE17=Three O'Clock Blues
TTITLE18=Who's Been Talking
TTITLE19=You Can't Loose What You Ain't Never Had
EXTD=
EXTT0=John Lee Hooker
EXTT1=John Mayall and The Bluesbrakers
EXTT2=Howlin' Wolf
EXTT3=Muddy Waters
EXTT4=Howlin' Wolf
EXTT5=B.B.King
EXTT6=Muddy Waters
EXTT7=John Lee Hooker
EXTT8=Little Walter
EXTT9=Elmore James
EXTT10=Jeff Back
EXTT11=Eric Clapton
EXTT12=Lightning Hopkins
EXTT13=Howlin' Wolf
EXTT14=Muddy Waters
EXTT15=John Lee Hooker
EXTT16=John Mayall and The Bluesbrakers
EXTT17=B.B.King
EXTT18=Howlin' Wolf
EXTT19=Muddy Waters
PLAYORDER=
